<?xml version="1.0" encoding="UTF-8" standalone="no"?>
<svg width="164px" height="51px" viewBox="0 0 164 51" version="1.1" xmlns="http://www.w3.org/2000/svg" xmlns:xlink="http://www.w3.org/1999/xlink" xmlns:sketch="http://www.bohemiancoding.com/sketch/ns">
    <!-- Generator: Sketch 3.1.1 (8761) - http://www.bohemiancoding.com/sketch -->
    <title>Rectangle 1 + Rectangle 2 + Rectangle 15 + HACKLAB 8</title>
    <desc>Created with Sketch.</desc>
    <defs></defs>
    <g id="Page-1" stroke="none" stroke-width="1" fill="none" fill-rule="evenodd" sketch:type="MSPage">
        <g id="Rectangle-1-+-Rectangle-2-+-Rectangle-15-+-HACKLAB-8" sketch:type="MSLayerGroup">
            <g sketch:type="MSShapeGroup">
                <g id="Rectangle-1-+-Rectangle-2-+-Rectangle-15" transform="translate(33.254237, 45.300000)">
                    <rect id="Rectangle-3" fill="#E9E4F2" x="37.1228814" y="0" width="56.6949153" height="5.7"></rect>
                    <rect id="Rectangle-2" fill="#C8B9DE" x="17.5946328" y="0" width="37.7966102" height="5.7"></rect>
                    <rect id="Rectangle-1" fill="#B09ACF" x="0" y="0" width="18.8983051" height="5.7"></rect>
                </g>
                <path d="M0.310909663,0.68 L4.73272784,0.68 L4.73272784,10.8363636 L9.15454603,10.8363636 L9.15454603,0.68 L13.5763642,0.68 L13.5763642,25 L9.15454603,25 L9.15454603,14.9818182 L4.73272784,14.9818182 L4.73272784,25 L0.310909663,25 L0.310909663,0.68 Z M34.3354549,16.1563636 C33.6675728,11.8151298 32.8615203,7.90577496 31.9172731,4.42818182 L31.7445458,4.42818182 C30.8118139,7.87122934 30.0057614,11.7805842 29.326364,16.1563636 L34.3354549,16.1563636 Z M28.4109095,0.68 L35.2509095,0.68 C37.2315254,6.87518249 38.8033279,14.9817681 39.966364,25 L35.4927277,25 C35.3545451,23.4109011 35.164547,21.8448562 34.9227277,20.3018182 L28.7390913,20.3018182 C28.4972719,21.8448562 28.3072738,23.4109011 28.1690913,25 L23.6954549,25 C24.858491,14.9817681 26.4302935,6.87518249 28.4109095,0.68 L28.4109095,0.68 Z M63.3509093,20.7163636 L63.3509093,24.8618182 C61.2896869,25.1381832 59.4645536,25.2763636 57.8754547,25.2763636 C55.5148369,25.2763636 53.6119771,24.686218 52.1668184,23.5059091 C50.7216596,22.3256002 49.7457603,20.7278889 49.2390911,18.7127273 C48.8821196,17.3078718 48.7036366,15.3503156 48.7036366,12.84 C48.7036366,10.3296844 48.8821196,8.37212824 49.2390911,6.96727273 C49.7457603,4.94059593 50.7015083,3.34000587 52.1063638,2.16545455 C53.5112193,0.990903218 55.3766552,0.403636364 57.7027275,0.403636364 C59.4645545,0.403636364 61.2609001,0.507271691 63.0918184,0.714545455 L63.0918184,4.86 C60.7887766,4.65272624 59.0097034,4.54909091 57.7545456,4.54909091 C55.3939278,4.54909091 53.9545482,5.87332009 53.4363638,8.52181818 C53.2290901,9.60424784 53.1254547,11.0436274 53.1254547,12.84 C53.1254547,14.6363726 53.2290901,16.0757522 53.4363638,17.1581818 C53.9545482,19.8066799 55.4342304,21.1309091 57.8754547,21.1309091 C59.1997038,21.1309091 61.024837,20.9927287 63.3509093,20.7163636 L63.3509093,20.7163636 Z M78.2890909,25 L73.8672727,25 L73.8672727,0.68 L78.2890909,0.68 L78.2890909,10.18 L83.4018182,0.68 L88.3936364,0.68 L82.6072727,10.8709091 L90,25 L85.0427273,25 L79.6363636,14.4463636 L78.2890909,16.7263636 L78.2890909,25 Z M99.8599998,25 L99.8599998,0.68 L104.281818,0.68 L104.281818,20.8545455 L114.230909,20.8545455 L114.230909,25 L99.8599998,25 Z M133.884545,16.1563636 C133.216663,11.8151298 132.41061,7.90577496 131.466363,4.42818182 L131.293636,4.42818182 C130.360904,7.87122934 129.554852,11.7805842 128.875454,16.1563636 L133.884545,16.1563636 Z M127.96,0.68 L134.8,0.68 C136.780616,6.87518249 138.352418,14.9817681 139.515454,25 L135.041818,25 C134.903635,23.4109011 134.713637,21.8448562 134.471818,20.3018182 L128.288181,20.3018182 C128.046362,21.8448562 127.856364,23.4109011 127.718181,25 L123.244545,25 C124.407581,14.9817681 125.979384,6.87518249 127.96,0.68 L127.96,0.68 Z M154.816363,10.6981818 C155.680004,10.6981818 156.244241,10.6636367 156.50909,10.5945455 C157.130912,10.4448477 157.628937,10.119548 158.003181,9.61863636 C158.377426,9.11772477 158.564545,8.49879156 158.564545,7.76181818 C158.564545,7.03636001 158.374547,6.42030556 157.994545,5.91363636 C157.614543,5.40696716 157.119396,5.08454615 156.50909,4.94636364 C156.140604,4.86575717 155.576367,4.82545455 154.816363,4.82545455 L154.056363,4.82545455 L154.056363,10.6981818 L154.816363,10.6981818 Z M160.222727,12.4254545 C161.408793,12.7709108 162.332875,13.4762068 162.994999,14.5413636 C163.657124,15.6065205 163.988181,16.8818108 163.988181,18.3672727 C163.988181,19.979402 163.565004,21.3583276 162.718636,22.5040909 C161.872268,23.6498542 160.775461,24.3896953 159.428181,24.7236364 C158.691208,24.9078797 157.464856,25 155.74909,25 L149.634545,25 L149.634545,0.68 L154.816363,0.68 C156.301825,0.68 157.361208,0.754847736 157.994545,0.904545455 C159.410916,1.23848652 160.568177,1.96969133 161.466363,3.09818182 C162.364549,4.22667231 162.813636,5.60847667 162.813636,7.24363636 C162.813636,9.67334548 161.950008,11.3430258 160.222727,12.2527273 L160.222727,12.4254545 Z M154.056363,14.8436364 L154.056363,20.8545455 L155.766363,20.8545455 C156.802732,20.8545455 157.493634,20.8084853 157.83909,20.7163636 C158.414851,20.5666659 158.875452,20.2356086 159.220909,19.7231818 C159.566365,19.210755 159.73909,18.5860643 159.73909,17.8490909 C159.73909,17.1121175 159.566365,16.484548 159.220909,15.9663636 C158.875452,15.4481792 158.414851,15.1200007 157.83909,14.9818182 C157.447573,14.8896965 156.756671,14.8436364 155.766363,14.8436364 L154.056363,14.8436364 Z" id="HACKLAB" fill="#E9E4F2"></path>
            </g>
        </g>
    </g>
</svg>